<svg width="21" height="21" viewBox="0 0 21 21" fill="none" xmlns="http://www.w3.org/2000/svg">
<path d="M18.3329 9.44159V14.3203C18.3329 17.5728 17.504 18.3859 14.1883 18.3859H5.89901C2.58332 18.3859 1.75439 17.5728 1.75439 14.3203V6.18912C1.75439 2.93665 2.58332 2.12354 5.89901 2.12354H7.1424C8.38579 2.12354 8.65933 2.48131 9.13182 3.09928L10.3752 4.72551C10.6902 5.13207 10.8726 5.376 11.7015 5.376H14.1883C17.504 5.376 18.3329 6.18912 18.3329 9.44159Z" stroke="#5C5967" stroke-miterlimit="10"/>
<path d="M7.14221 2.12354H14.6025C16.2604 2.12354 17.0893 2.93665 17.0893 4.56289V5.68499" stroke="#5C5967" stroke-miterlimit="10" stroke-linecap="round" stroke-linejoin="round"/>
<path d="M12.1158 12.6938H7.97119" stroke="#5C5967" stroke-miterlimit="10" stroke-linecap="round" stroke-linejoin="round"/>
</svg>
